<svg width="29" height="30" viewBox="0 0 29 30" fill="none" xmlns="http://www.w3.org/2000/svg">
<circle cx="6.5" cy="6.5" r="6.5" fill="white" fill-opacity="0.35"/>
<path d="M10.7013 19.4077C8.8984 15.7288 6.47321 12.2406 5.195 8.33226C4.98035 8.18462 5.07715 7.72184 5.07096 7.49378C5.23684 7.39014 5.14803 7.22809 5.16656 7.07098C5.17617 7.0308 5.25448 7.00695 5.26927 6.9635C5.33677 6.6465 5.56281 6.60039 5.57029 6.32576C5.87352 5.97294 6.41307 5.74941 6.76092 5.51021C7.00157 5.50584 7.95891 5.34754 8.12931 5.58452C10.1989 6.07628 11.0198 9.23992 12.1918 10.9087C12.6991 11.4472 12.4361 11.5773 13.0885 11.0462C13.3913 10.9079 13.7948 10.9441 14.0271 10.7096C14.5916 10.6579 15.3378 10.6022 15.8206 10.9846C15.8952 10.9829 16.5946 10.4855 16.7544 10.4378C17.1554 10.3183 18.3002 10.2189 18.7485 10.2876C18.8583 10.3041 19.4239 10.5868 19.4912 10.5864C19.5343 10.5854 20.0922 10.1985 20.2173 10.1494C20.4792 10.0152 20.8703 10.1557 21.0532 9.92019C21.2127 9.90819 21.4857 9.84735 21.5809 10.0135C22.8555 9.98157 23.8613 10.9022 24.5144 11.8928C28.5662 17.7661 30.6961 25.133 22.3061 28.1898C18.2806 29.8654 14.3076 27.0672 10.8865 25.2925C9.34502 24.487 6.32282 23.7097 6.12642 21.6666C5.93682 21.5573 5.93459 20.9453 6.10747 20.8258C6.01452 20.2474 6.37435 20.3528 6.40374 19.9778C6.56418 19.8196 6.94364 19.2569 7.17643 19.2768C7.35432 19.1466 7.47972 19.0197 7.69708 19.0548C7.8942 18.798 8.86111 18.9244 9.16581 18.9165C9.61461 18.9579 10.2599 19.3661 10.7013 19.4077ZM17.2288 15.1593C17.2084 15.1398 17.2537 15.0504 17.2253 15.0016C16.4841 14.2096 16.1993 13.0467 15.4287 12.2554C15.3166 12.3178 15.2647 12.1644 15.2162 12.155C15.0947 12.1304 14.9246 12.1847 14.7958 12.1645C14.5663 11.8689 14.2565 12.2576 13.9552 12.1834C13.7177 12.3739 13.3971 12.5168 13.1802 12.7793C13.8426 13.9043 14.5217 15.2077 15.1521 16.3103C15.0601 17.0295 14.2822 17.1291 13.8959 16.5489C12.3227 13.5442 10.368 10.6385 8.75345 7.62107C8.55162 7.38901 8.18187 6.98302 7.84488 6.95802C7.79929 6.94117 7.7765 6.86281 7.73743 6.85528C7.56845 6.8675 7.09946 6.76976 7.00425 6.97697C6.8514 6.91206 6.60683 7.30246 6.53969 7.3555C6.51747 7.44224 6.56459 7.57368 6.5468 7.67082C7.56472 12.0646 11.0866 16.3062 12.9365 20.6718C13.5139 21.1005 13.0633 21.8667 12.3822 21.6833C11.0333 21.1217 9.61303 20.1936 8.14583 20.3066C8.07753 20.3544 8.06906 20.445 7.93805 20.4164C7.86321 20.5012 7.40964 20.8542 7.47823 21.0052C7.27862 21.1517 7.38577 21.3343 7.48771 21.4256C7.30757 22.6222 13.625 24.9552 14.8938 25.8331C16.5671 26.704 18.5752 27.7787 20.391 27.1814C26.1933 26.1126 28.4939 21.5546 25.3519 16.3958C24.509 14.6849 23.2385 10.6491 20.7735 11.5039C20.6817 11.5354 20.3292 11.5244 20.4116 11.775C20.871 12.1926 20.9218 12.8613 21.3929 13.3302C21.4673 13.5988 21.358 14.0198 21.0405 14.0217C20.922 14.0791 20.851 14.1943 20.6226 14.1363C20.1069 13.7883 19.8918 13.0612 19.5876 12.5297C19.4914 12.3646 19.1992 12.184 19.2593 11.9587C19.1104 12.022 18.9061 11.8205 18.7817 11.7591C18.605 11.7526 18.5926 11.8128 18.4641 11.6611C17.9282 11.6259 17.1352 11.6143 16.7386 12.0681C17.274 12.8258 17.8109 13.7454 18.2666 14.5575C18.3017 14.7155 18.142 15.186 17.9118 15.1439C17.786 15.2056 17.7337 15.3077 17.4939 15.2585C17.3723 15.1319 17.3852 15.1463 17.2288 15.1593Z" fill="black"/>
<path d="M17.2293 15.1586C17.3762 15.1489 17.3726 15.1269 17.4943 15.2577C17.7861 15.3279 17.8097 15.116 18.0174 15.1408C18.1803 15.0015 18.4106 14.5851 18.1596 14.454C17.8365 13.599 17.2049 12.8172 16.739 12.0674C17.1357 11.6147 17.9297 11.6241 18.4645 11.6604C18.59 11.8164 18.6168 11.7474 18.7822 11.7584C18.9025 11.8251 19.1149 12.017 19.2597 11.958C19.1986 12.1854 19.4928 12.3628 19.588 12.529C19.8923 13.0605 20.1095 13.7875 20.623 14.1356C20.8514 14.1936 20.9224 14.0784 21.0409 14.021C21.3605 14.018 21.4646 13.5992 21.3933 13.3295C20.9191 12.8617 20.8725 12.1908 20.4121 11.7743C20.3297 11.5237 20.6821 11.5347 20.7739 11.5032C23.2378 10.6442 24.5095 14.6874 25.3523 16.3951C28.4964 21.5528 26.1896 26.113 20.3914 27.1807C18.5735 27.7769 16.5697 26.7043 14.8942 25.8324C13.6095 24.9486 7.32495 22.6274 7.48813 21.4249C7.42412 21.337 7.24396 21.1801 7.47865 21.0045C8.19908 19.2447 11.1319 21.2344 12.3826 21.6826C13.0658 21.8639 13.5134 21.1029 12.938 20.6711C10.9569 16.3169 7.91212 12.2054 6.44452 7.77759C6.61381 7.68544 6.5171 7.49938 6.54012 7.35479C6.59945 7.28195 6.86078 6.93534 7.00468 6.97626C7.09988 6.76905 7.56238 6.85852 7.73786 6.85457C7.81101 6.97491 8.05467 7.01042 8.16291 7.05531C8.26316 7.11825 8.6865 7.52303 8.75388 7.62036C10.1925 10.2958 11.8667 12.8818 13.3473 15.509C13.5224 15.8163 13.7356 16.3173 13.8964 16.5482C14.2847 17.1273 15.0584 17.0299 15.1526 16.3096C14.5222 15.207 13.8431 13.9036 13.1806 12.7786C13.3975 12.516 13.7181 12.3732 13.9556 12.1827C14.2559 12.2569 14.5667 11.8682 14.7963 12.1638C14.925 12.184 15.0951 12.1297 15.2166 12.1543C15.2652 12.1637 15.317 12.3171 15.4291 12.2547C16.1997 13.046 16.4845 14.2089 17.2257 15.0009C17.2541 15.0497 17.2089 15.139 17.2293 15.1586Z" fill="white" stroke="white" stroke-width="0.2"/>
</svg>
